<svg xmlns="http://www.w3.org/2000/svg" viewBox="0 0 920 532" width="920" height="532" role="img" aria-label="Star count is scored on a bell curve: buckets 1 and 12 score identically at 0.09 while the middle buckets 6 and 7 peak at 1.00">
<style>text{font-family:system-ui,-apple-system,"Segoe UI",Roboto,sans-serif;fill:#201e1d}.ttl{font-size:22px;font-weight:700}.sub{font-size:13.5px;fill:#645c50}.ax{font-size:11.5px;fill:#645c50}.bn{font-size:11px;font-weight:600;fill:#82796a}.val{font-size:11.5px;font-weight:700;fill:#8c491a}.note{font-size:12px;font-weight:600;fill:#3d472b}.lg{font-size:12.5px;fill:#645c50}</style>
<rect width="920" height="532" rx="18" fill="#f5ead8"/>
<text class="ttl" x="96" y="44">How star count is scored</text>
<text class="sub" x="96" y="68">A repository nobody has starred is unproven. One with 100,000 stars is not hidden.</text>
<text class="sub" x="96" y="86">Both score the same. The middle bands are where the hidden gems are.</text>
<rect x="225.3" y="120.0" width="323.3" height="280.0" fill="#3d472b" opacity="0.07" rx="8"/>
<line x1="96" y1="400.0" x2="872" y2="400.0" stroke="#c0b6a5" stroke-width="1" opacity="0.8"/>
<text class="ax" x="84" y="404.0" text-anchor="end">0.00</text>
<line x1="96" y1="337.3" x2="872" y2="337.3" stroke="#c0b6a5" stroke-width="1" stroke-dasharray="3 4" opacity="0.8"/>
<text class="ax" x="84" y="341.3" text-anchor="end">0.25</text>
<line x1="96" y1="274.5" x2="872" y2="274.5" stroke="#c0b6a5" stroke-width="1" stroke-dasharray="3 4" opacity="0.8"/>
<text class="ax" x="84" y="278.5" text-anchor="end">0.50</text>
<line x1="96" y1="211.8" x2="872" y2="211.8" stroke="#c0b6a5" stroke-width="1" stroke-dasharray="3 4" opacity="0.8"/>
<text class="ax" x="84" y="215.8" text-anchor="end">0.75</text>
<line x1="96" y1="149.1" x2="872" y2="149.1" stroke="#c0b6a5" stroke-width="1" stroke-dasharray="3 4" opacity="0.8"/>
<text class="ax" x="84" y="153.1" text-anchor="end">1.00</text>
<text class="ax" x="84" y="118" text-anchor="end" font-weight="600">score</text>
<rect x="108.3" y="377.2" width="40.0" height="22.8" rx="4" fill="#c67139" opacity="0.9"/>
<text class="val" x="128.3" y="369.2" text-anchor="middle">0.09</text>
<rect x="173.0" y="349.3" width="40.0" height="50.7" rx="4" fill="#c67139" opacity="0.9"/>
<text class="val" x="193.0" y="341.3" text-anchor="middle">0.20</text>
<rect x="237.7" y="303.9" width="40.0" height="96.1" rx="4" fill="#c67139" opacity="0.9"/>
<text class="val" x="257.7" y="295.9" text-anchor="middle">0.38</text>
<rect x="302.3" y="244.7" width="40.0" height="155.3" rx="4" fill="#c67139" opacity="0.9"/>
<text class="val" x="322.3" y="236.7" text-anchor="middle">0.62</text>
<rect x="367.0" y="186.2" width="40.0" height="213.8" rx="4" fill="#c67139" opacity="0.9"/>
<text class="val" x="387.0" y="178.2" text-anchor="middle">0.85</text>
<rect x="431.7" y="149.1" width="40.0" height="250.9" rx="4" fill="#c67139" opacity="0.9"/>
<text class="val" x="451.7" y="141.1" text-anchor="middle">1.00</text>
<rect x="496.3" y="149.1" width="40.0" height="250.9" rx="4" fill="#c67139" opacity="0.9"/>
<text class="val" x="516.3" y="141.1" text-anchor="middle">1.00</text>
<rect x="561.0" y="186.2" width="40.0" height="213.8" rx="4" fill="#c67139" opacity="0.9"/>
<text class="val" x="581.0" y="178.2" text-anchor="middle">0.85</text>
<rect x="625.7" y="244.7" width="40.0" height="155.3" rx="4" fill="#c67139" opacity="0.9"/>
<text class="val" x="645.7" y="236.7" text-anchor="middle">0.62</text>
<rect x="690.3" y="303.9" width="40.0" height="96.1" rx="4" fill="#c67139" opacity="0.9"/>
<text class="val" x="710.3" y="295.9" text-anchor="middle">0.38</text>
<rect x="755.0" y="349.3" width="40.0" height="50.7" rx="4" fill="#c67139" opacity="0.9"/>
<text class="val" x="775.0" y="341.3" text-anchor="middle">0.20</text>
<rect x="819.7" y="377.2" width="40.0" height="22.8" rx="4" fill="#c67139" opacity="0.9"/>
<text class="val" x="839.7" y="369.2" text-anchor="middle">0.09</text>
<polyline points="96.00,385.63 99.23,384.93 102.47,384.19 105.70,383.43 108.93,382.64 112.17,381.82 115.40,380.97 118.63,380.09 121.87,379.17 125.10,378.22 128.33,377.23 131.57,376.22 134.80,375.16 138.03,374.07 141.27,372.94 144.50,371.77 147.73,370.57 150.97,369.33 154.20,368.04 157.43,366.72 160.67,365.35 163.90,363.95 167.13,362.50 170.37,361.01 173.60,359.47 176.83,357.89 180.07,356.27 183.30,354.60 186.53,352.89 189.77,351.14 193.00,349.34 196.23,347.49 199.47,345.60 202.70,343.66 205.93,341.68 209.17,339.65 212.40,337.57 215.63,335.45 218.87,333.29 222.10,331.07 225.33,328.82 228.57,326.52 231.80,324.18 235.03,321.79 238.27,319.36 241.50,316.88 244.73,314.37 247.97,311.82 251.20,309.22 254.43,306.59 257.67,303.92 260.90,301.21 264.13,298.46 267.37,295.68 270.60,292.87 273.83,290.03 277.07,287.15 280.30,284.25 283.53,281.32 286.77,278.36 290.00,275.39 293.23,272.38 296.47,269.36 299.70,266.32 302.93,263.27 306.17,260.20 309.40,257.12 312.63,254.03 315.87,250.93 319.10,247.83 322.33,244.72 325.57,241.62 328.80,238.51 332.03,235.41 335.27,232.33 338.50,229.25 341.73,226.18 344.97,223.13 348.20,220.10 351.43,217.08 354.67,214.10 357.90,211.14 361.13,208.20 364.37,205.31 367.60,202.44 370.83,199.62 374.07,196.83 377.30,194.09 380.53,191.40 383.77,188.75 387.00,186.16 390.23,183.62 393.47,181.14 396.70,178.72 399.93,176.36 403.17,174.07 406.40,171.84 409.63,169.69 412.87,167.61 416.10,165.60 419.33,163.67 422.57,161.82 425.80,160.05 429.03,158.37 432.27,156.77 435.50,155.25 438.73,153.83 441.97,152.50 445.20,151.26 448.43,150.11 451.67,149.06 454.90,148.10 458.13,147.24 461.37,146.48 464.60,145.82 467.83,145.26 471.07,144.81 474.30,144.45 477.53,144.19 480.77,144.04 484.00,143.99 487.23,144.04 490.47,144.19 493.70,144.45 496.93,144.81 500.17,145.26 503.40,145.82 506.63,146.48 509.87,147.24 513.10,148.10 516.33,149.06 519.57,150.11 522.80,151.26 526.03,152.50 529.27,153.83 532.50,155.25 535.73,156.77 538.97,158.37 542.20,160.05 545.43,161.82 548.67,163.67 551.90,165.60 555.13,167.61 558.37,169.69 561.60,171.84 564.83,174.07 568.07,176.36 571.30,178.72 574.53,181.14 577.77,183.62 581.00,186.16 584.23,188.75 587.47,191.40 590.70,194.09 593.93,196.83 597.17,199.62 600.40,202.44 603.63,205.31 606.87,208.20 610.10,211.14 613.33,214.10 616.57,217.08 619.80,220.10 623.03,223.13 626.27,226.18 629.50,229.25 632.73,232.33 635.97,235.41 639.20,238.51 642.43,241.62 645.67,244.72 648.90,247.83 652.13,250.93 655.37,254.03 658.60,257.12 661.83,260.20 665.07,263.27 668.30,266.32 671.53,269.36 674.77,272.38 678.00,275.39 681.23,278.36 684.47,281.32 687.70,284.25 690.93,287.15 694.17,290.03 697.40,292.87 700.63,295.68 703.87,298.46 707.10,301.21 710.33,303.92 713.57,306.59 716.80,309.22 720.03,311.82 723.27,314.37 726.50,316.88 729.73,319.36 732.97,321.79 736.20,324.18 739.43,326.52 742.67,328.82 745.90,331.07 749.13,333.29 752.37,335.45 755.60,337.57 758.83,339.65 762.07,341.68 765.30,343.66 768.53,345.60 771.77,347.49 775.00,349.34 778.23,351.14 781.47,352.89 784.70,354.60 787.93,356.27 791.17,357.89 794.40,359.47 797.63,361.01 800.87,362.50 804.10,363.95 807.33,365.35 810.57,366.72 813.80,368.04 817.03,369.33 820.27,370.57 823.50,371.77 826.73,372.94 829.97,374.07 833.20,375.16 836.43,376.22 839.67,377.23 842.90,378.22 846.13,379.17 849.37,380.09 852.60,380.97 855.83,381.82 859.07,382.64 862.30,383.43 865.53,384.19 868.77,384.93 872.00,385.63" fill="none" stroke="#3d472b" stroke-width="2.5" stroke-linecap="round" opacity="0.85"/>
<text class="bn" x="128.3" y="420" text-anchor="middle">1</text>
<text class="ax" transform="translate(128.3,436) rotate(-40)" text-anchor="end">0-100</text>
<text class="bn" x="193.0" y="420" text-anchor="middle">2</text>
<text class="ax" transform="translate(193.0,436) rotate(-40)" text-anchor="end">101-250</text>
<text class="bn" x="257.7" y="420" text-anchor="middle">3</text>
<text class="ax" transform="translate(257.7,436) rotate(-40)" text-anchor="end">251-500</text>
<text class="bn" x="322.3" y="420" text-anchor="middle">4</text>
<text class="ax" transform="translate(322.3,436) rotate(-40)" text-anchor="end">501-1K</text>
<text class="bn" x="387.0" y="420" text-anchor="middle">5</text>
<text class="ax" transform="translate(387.0,436) rotate(-40)" text-anchor="end">1K-2.5K</text>
<text class="bn" x="451.7" y="420" text-anchor="middle">6</text>
<text class="ax" transform="translate(451.7,436) rotate(-40)" text-anchor="end">2.5K-5K</text>
<text class="bn" x="516.3" y="420" text-anchor="middle">7</text>
<text class="ax" transform="translate(516.3,436) rotate(-40)" text-anchor="end">5K-10K</text>
<text class="bn" x="581.0" y="420" text-anchor="middle">8</text>
<text class="ax" transform="translate(581.0,436) rotate(-40)" text-anchor="end">10K-15K</text>
<text class="bn" x="645.7" y="420" text-anchor="middle">9</text>
<text class="ax" transform="translate(645.7,436) rotate(-40)" text-anchor="end">15K-25K</text>
<text class="bn" x="710.3" y="420" text-anchor="middle">10</text>
<text class="ax" transform="translate(710.3,436) rotate(-40)" text-anchor="end">25K-50K</text>
<text class="bn" x="775.0" y="420" text-anchor="middle">11</text>
<text class="ax" transform="translate(775.0,436) rotate(-40)" text-anchor="end">50K-100K</text>
<text class="bn" x="839.7" y="420" text-anchor="middle">12</text>
<text class="ax" transform="translate(839.7,436) rotate(-40)" text-anchor="end">100K+</text>
<text class="note" x="160.7" y="284.6" text-anchor="middle" fill="#645c50">unproven</text>
<text class="note" x="807.3" y="284.6" text-anchor="middle" fill="#645c50">already famous</text>
<text class="note" x="387.0" y="118.0" text-anchor="middle">hidden-gem band</text>
<rect x="96" y="496" width="16" height="12" rx="3" fill="#c67139" opacity="0.9"/>
<text class="lg" x="120" y="506">the 12 discrete buckets the code scores</text>
<line x1="416" y1="502" x2="444" y2="502" stroke="#3d472b" stroke-width="2.5" stroke-linecap="round" opacity="0.85"/>
<text class="lg" x="452" y="506">exp(-(i - 6.5)&#178; / 2&#963;&#178;), &#963; = 2.5, normalised to peak 1.00</text>
</svg>
